<?xml version="1.0" encoding="utf-8"?>
<!-- Generator: Adobe Illustrator 22.1.0, SVG Export Plug-In . SVG Version: 6.00 Build 0)  -->
<svg version="1.1" id="Layer_1" xmlns="http://www.w3.org/2000/svg" xmlns:xlink="http://www.w3.org/1999/xlink" x="0px" y="0px"
	 viewBox="0 0 266.6 200" style="enable-background:new 0 0 266.6 200;" xml:space="preserve">
<style type="text/css">
	.st0{fill:#9E9E9E;}
</style>
<path class="st0" d="M88.2,4.9L4.9,88.2c-6.5,6.5-6.5,17.1,0,23.6l0,0l83.3,83.3c6.5,6.5,17.1,6.5,23.6,0s6.5-17.1,0-23.6l0,0
	l-54.9-54.9H250c9.2,0,16.7-7.5,16.7-16.7s-7.5-16.7-16.7-16.7l0,0H56.9l54.9-54.9c6.5-6.5,6.5-17,0.1-23.5l-0.1-0.1
	C105.3-1.6,94.7-1.6,88.2,4.9L88.2,4.9z"/>
</svg>
