<?xml version="1.0" encoding="UTF-8"?>
<svg width="38px" height="38px" viewBox="0 0 38 38" version="1.1" xmlns="http://www.w3.org/2000/svg" xmlns:xlink="http://www.w3.org/1999/xlink">
    <!-- Generator: Sketch 52.2 (67145) - http://www.bohemiancoding.com/sketch -->
    <title>icon</title>
    <desc>Created with Sketch.</desc>
    <g id="icon" stroke="none" stroke-width="1" fill="none" fill-rule="evenodd">
        <g id="探索-选中">
            <rect id="Rectangle" fill="#000000" opacity="0" x="0" y="0" width="38" height="38"></rect>
            <path d="M34.3763638,3.31131692 C34.3752626,3.03550991 34.3313643,2.8047024 34.2710612,2.59641364 C33.1122009,2.28973357 31.6029522,2.6424764 30.3269413,3.26168458 C30.0653367,3.38825278 29.4451412,3.7657548 28.526544,4.32462191 C28.1466496,4.55656864 27.8116407,4.76026256 27.663693,4.8442616 C27.6494147,4.85257796 27.6410984,4.86791957 27.6281112,4.87623593 C25.1210889,3.3492912 22.1889449,2.45195957 19.0439932,2.45195957 C9.90575491,2.45195957 2.47206696,9.88568549 2.47206696,19.0236959 C2.47206696,22.0872308 3.32204468,24.9494642 4.77676235,27.4127402 C3.05800966,30.0619 2.20579146,31.9746632 2.42835857,33.2709523 C2.47442132,33.5360886 2.9314035,33.5785438 3.18229939,33.5785438 C8.30301354,33.5785438 20.0074379,22.3417343 21.4634468,20.9094214 C27.8932094,14.5848095 34.3799714,6.85290972 34.3763638,3.31131692 Z M11.3498019,22.6743508 C9.71861779,22.6743508 8.39054424,21.3474165 8.39054424,19.7151311 C8.39054424,18.0839471 9.71865579,16.7558735 11.3498019,16.7558735 C12.9809859,16.7558735 14.3090215,18.0839851 14.3090215,19.7151311 C14.3090595,21.3474165 12.9809859,22.6743508 11.3498019,22.6743508 Z M16.5581226,14.3884447 C14.6002081,14.3884447 13.0069603,12.795045 13.0069603,10.8373583 C13.0069603,8.87944375 14.6002081,7.28619596 16.5581226,7.28619596 C18.5160751,7.28619596 20.1092849,8.87944375 20.1092849,10.8373583 C20.1092849,12.7950449 18.5160371,14.3884447 16.5581226,14.3884447 Z M33.16077,10.3886545 C30.6785449,14.0747393 26.7758929,18.5006385 22.8826965,22.3286332 C21.8231769,23.3715581 15.4005534,29.5955003 10.0063867,32.9121715 C10.0110955,32.908564 10.0146651,32.9062096 10.0193739,32.9038552 C12.6188634,34.6000512 15.71536,35.5956222 19.0439932,35.5956222 C28.1820416,35.5956222 35.6157675,28.1619342 35.6157675,19.023658 C35.6144764,15.8574786 34.7077651,12.9076006 33.16077,10.3886545 Z M23.6958392,29.6771449 C22.3903224,29.6771449 21.3284863,28.6152708 21.3284863,27.309754 C21.3284863,26.0040852 22.3903224,24.9422112 23.6958392,24.9422112 C25.001508,24.9422112 26.0631922,26.0040852 26.0631922,27.309754 C26.0631921,28.6152708 25.001508,29.6771449 23.6958392,29.6771449 Z" id="Shape" fill="#FFFFFF" fill-rule="nonzero"></path>
        </g>
    </g>
</svg>