<?xml version="1.0" encoding="UTF-8"?>
<svg width="38px" height="38px" viewBox="0 0 38 38" version="1.1" xmlns="http://www.w3.org/2000/svg" xmlns:xlink="http://www.w3.org/1999/xlink">
    <!-- Generator: Sketch 52.2 (67145) - http://www.bohemiancoding.com/sketch -->
    <title>icon</title>
    <desc>Created with Sketch.</desc>
    <g id="icon" stroke="none" stroke-width="1" fill="none" fill-rule="evenodd">
        <g id="爱心" fill="#FFFFFF" fill-rule="nonzero">
            <path d="M36.8048095,12.3543228 C36.0386772,10.3026243 34.9299418,8.41111905 33.5093148,6.73243386 C32.7919894,5.88477249 31.5233122,5.77921693 30.6757011,6.4964418 C29.8280899,7.2137672 29.7224339,8.48239418 30.4397593,9.33005556 C32.7219709,12.0268995 33.978836,15.4610741 33.978836,19 C33.978836,27.2593201 27.2593201,33.978836 19,33.978836 C10.7406296,33.978836 4.02116402,27.2593201 4.02116402,19 C4.02116402,10.7406296 10.7406296,4.02116402 19,4.02116402 C21.3753519,4.02116402 23.6458519,4.56020106 25.7484683,5.62334656 C26.7391825,6.12428307 27.9488492,5.72729365 28.4499365,4.73632804 C28.9510238,3.7454127 28.5538333,2.53589683 27.562918,2.03485979 C24.892463,0.684603175 22.0115503,0 19,0 C16.4359048,0 13.9474577,0.502645503 11.6037725,1.49396296 C9.34101323,2.45105026 7.30926984,3.82070899 5.56498942,5.56498942 C3.82070899,7.30926984 2.451,9.34101323 1.49396296,11.6037222 C0.502645503,13.9474074 0,16.4359048 0,19 C0,21.5640952 0.502645503,24.0525926 1.49396296,26.3962275 C2.45105026,28.6589868 3.82070899,30.6907302 5.56498942,32.4350106 C7.30926984,34.179291 9.34101323,35.549 11.6037725,36.506037 C13.9474577,37.4973545 16.4359048,38 19,38 C21.5640952,38 24.0525926,37.4973545 26.3962778,36.506037 C28.659037,35.549 30.6907804,34.179291 32.4350106,32.4350106 C34.179291,30.6907302 35.549,28.6589868 36.506037,26.3962275 C37.4973545,24.0525926 38,21.5640952 38,19 C38,16.7142698 37.5978836,14.4783519 36.8048095,12.3543228 Z M23.5110825,10.4204644 C22.4676421,10.5376788 21.5199597,10.8928396 20.6604848,11.4648421 C20.29587,11.7075444 19.9600794,11.9936447 19.6265336,12.2771194 C19.411499,12.4598768 19.2244726,12.6737956 18.9921945,12.906441 C18.7079816,12.6182104 18.4604496,12.3473192 18.1916437,12.0980775 C17.2668166,11.2405196 16.1716966,10.6810015 14.9118953,10.486156 C14.258374,10.385092 13.5797016,10.3449141 12.9208746,10.3911855 C12.0016084,10.4557872 11.1297365,10.733961 10.321125,11.1907803 C9.80233832,11.4838659 9.32783391,11.8217863 8.90113195,12.2306002 C7.95717376,13.1348754 7.35670963,14.2201742 7.06912965,15.4719313 C7.00505293,15.7508482 6.96184196,16.0342733 6.90909091,16.3156177 C6.90909091,16.6954499 6.90909091,17.0752327 6.90909091,17.4550649 C6.96184196,17.7280864 7.00750173,18.0025941 7.0686705,18.2737825 C7.28635788,19.2389934 7.70300959,20.1212229 8.34194016,20.8860892 C9.08836249,21.7797131 9.9940583,22.517629 10.9081208,23.2452404 C11.5443475,23.751799 12.1533824,24.2903613 12.7805792,24.8077199 C13.7520353,25.6091476 14.7313989,26.4015589 15.7021918,27.2036802 C16.3483157,27.7375855 16.9827058,28.2848175 17.6272992,28.8204567 C18.0155347,29.1430194 18.4145347,29.4533454 18.8057802,29.7726383 C18.8619494,29.8184639 18.9016402,29.8833133 18.9489835,29.9393939 C18.9830115,29.9393939 19.0170395,29.9393939 19.0510165,29.9393939 C19.7164246,29.3817584 20.3783636,28.8201595 21.0480572,28.2674285 C22.0194622,27.4657035 22.9990809,26.6734409 23.9699758,25.8712205 C24.6161507,25.3372656 25.2491124,24.7882502 25.8953383,24.2542953 C26.7447119,23.5524949 27.6175021,22.8764558 28.4501933,22.1565729 C29.2251339,21.4866275 29.9292125,20.7457886 30.3935136,19.8292767 C30.7220088,19.180733 30.9609191,18.5000371 31.0388723,17.7743083 C31.0416272,17.7489432 31.0729003,17.7265011 31.0909091,17.7027213 C31.0909091,17.1412711 31.0909091,16.5797713 31.0909091,16.018321 C31.0067319,15.694718 30.9214323,15.3713627 30.8385815,15.0474129 C30.6380357,14.2637209 30.2487288,13.5688067 29.7582052,12.9265548 C28.934646,11.8481918 27.8421787,11.1149823 26.5460027,10.6821409 C25.5635781,10.3540792 24.5441665,10.3043894 23.5110825,10.4204644 Z" id="Shape"></path>
        </g>
    </g>
</svg>