<?xml version="1.0" encoding="UTF-8"?>
<svg width="38px" height="38px" viewBox="0 0 38 38" version="1.1" xmlns="http://www.w3.org/2000/svg" xmlns:xlink="http://www.w3.org/1999/xlink">
    <!-- Generator: Sketch 52.2 (67145) - http://www.bohemiancoding.com/sketch -->
    <title>icon</title>
    <desc>Created with Sketch.</desc>
    <g id="icon" stroke="none" stroke-width="1" fill="none" fill-rule="evenodd">
        <g id="首页-2" transform="translate(1.000000, 0.000000)">
            <rect id="Rectangle" fill="#000000" opacity="0" x="0" y="0" width="38" height="38"></rect>
            <path d="M21.3677896,28.4652725 C21.3677896,27.6930281 20.7892899,26.0860336 18.9886267,26.0860336 L16.6070714,26.0860336 C15.0434056,26.0860336 14.2278705,27.2175525 14.2278705,28.4652725 C14.2278705,36.9248349 14.2278705,35.5910653 14.2278705,35.5910653 L8.73892001,35.5910653 C6.44804722,35.5910653 4.67206734,33.6309482 4.67206734,31.6257937 L4.67206734,20.5531849 L2.03103395,20.5531849 C0.891730377,20.5531849 0.340382217,19.7608521 0.117283475,19.2589464 C0.028993332,19.057607 -0.348166947,17.9803153 0.986969844,16.5963057 L14.8614709,3.54379532 C15.5925512,2.78712035 16.5714515,2.36970735 17.6177941,2.36970735 C18.6640607,2.36970735 19.643075,2.78712035 20.3741173,3.5445548 L34.590045,16.5878754 C34.5924373,16.5909893 34.5955512,16.5940273 34.5985892,16.5963817 C35.9330424,17.9811508 35.5558821,19.0568475 35.4676299,19.2590224 C35.2445312,19.7609281 34.694702,20.5532229 33.5538795,20.5532229 L30.9050993,20.5532229 L30.9050993,31.6259076 C30.9050993,33.6309862 29.0533229,35.5911792 26.7616906,35.5911792 L21.3678276,35.5911792 C21.3677896,35.5910653 21.3677896,35.5717364 21.3677896,28.4652725 Z" id="Path" fill="#F8E71C"></path>
        </g>
    </g>
</svg>