<?xml version="1.0" encoding="UTF-8"?>
<svg width="38px" height="38px" viewBox="0 0 38 38" version="1.1" xmlns="http://www.w3.org/2000/svg" xmlns:xlink="http://www.w3.org/1999/xlink">
    <!-- Generator: Sketch 52.2 (67145) - http://www.bohemiancoding.com/sketch -->
    <title>icon</title>
    <desc>Created with Sketch.</desc>
    <g id="icon" stroke="none" stroke-width="1" fill="none" fill-rule="evenodd">
        <g id="用户">
            <rect id="Rectangle" fill="#000000" opacity="0" x="0" y="0" width="38" height="38"></rect>
            <path d="M7.75035375,11.2287145 C7.75035375,17.4301623 12.7776205,22.457429 18.9790683,22.457429 C25.1805161,22.457429 30.2077828,17.4301623 30.2077828,11.2287145 C30.2077828,5.02726673 25.1805161,3.79729159e-16 18.9790683,0 C12.7776205,-3.79729159e-16 7.75035375,5.02726673 7.75035375,11.2287145 Z" id="Path" fill="#F8E71C"></path>
            <path d="M29.8271484,22.39399 C28.9390015,21.6961603 27.6702202,21.7595993 26.8455124,22.5843072 C24.8154623,24.6143573 22.0241434,25.8831386 18.9156292,25.8831386 C15.807115,25.8831386 13.0157961,24.6143573 10.9857461,22.5843072 C10.1610382,21.7595993 8.89225695,21.6327212 8.00411004,22.39399 C4.5784005,25.312187 2.04083791,29.0550918 1.21613007,34.1936561 C0.898934754,36.2871452 2.35803322,38 4.51496143,38 L33.5066142,38 C35.6001033,38 37.1226409,36.2871453 36.8054456,34.1936561 C35.9172987,29.0550918 33.3797361,25.312187 29.8271484,22.39399 Z" id="Path" fill="#F8E71C"></path>
        </g>
    </g>
</svg>